<?xml version="1.0" standalone="no"?>
<svg xmlns="http://www.w3.org/2000/svg" width="1024" height="1024" viewBox="0 0 1024 1024"><defs><clipPath id="clip-path-dot-color"><path d="M 62 310v 31h 15.5a 15.5 15.5, 0, 0, 0, 0 -31" transform="rotate(180,77.5,325.5)"/><circle cx="77.5" cy="387.5" r="15.5" transform="rotate(0,77.5,387.5)"/><path d="M 62 434v 31h 15.5a 15.5 15.5, 0, 0, 0, 0 -31" transform="rotate(-90,77.5,449.5)"/><path d="M 62 465v 31h 15.5a 15.5 15.5, 0, 0, 0, 0 -31" transform="rotate(90,77.5,480.5)"/><path d="M 62 527v 31h 15.5a 15.5 15.5, 0, 0, 0, 0 -31" transform="rotate(180,77.5,542.5)"/><path d="M 62 589v 31h 31v -15.5a 15.5 15.5, 0, 0, 0, -15.5 -15.5" transform="rotate(-90,77.5,604.5)"/><rect x="62" y="620" width="31" height="31" transform="rotate(0,77.5,635.5)"/><path d="M 62 651v 31h 31v -15.5a 15.5 15.5, 0, 0, 0, -15.5 -15.5" transform="rotate(180,77.5,666.5)"/><path d="M 93 310v 31h 15.5a 15.5 15.5, 0, 0, 0, 0 -31" transform="rotate(0,108.5,325.5)"/><path d="M 93 496v 31h 31v -15.5a 15.5 15.5, 0, 0, 0, -15.5 -15.5" transform="rotate(-90,108.5,511.5)"/><rect x="93" y="527" width="31" height="31" transform="rotate(0,108.5,542.5)"/><rect x="93" y="558" width="31" height="31" transform="rotate(0,108.5,573.5)"/><path d="M 93 589v 31h 31v -15.5a 15.5 15.5, 0, 0, 0, -15.5 -15.5" transform="rotate(90,108.5,604.5)"/><rect x="93" y="651" width="31" height="31" transform="rotate(0,108.5,666.5)"/><path d="M 124 372v 31h 15.5a 15.5 15.5, 0, 0, 0, 0 -31" transform="rotate(-90,139.5,387.5)"/><rect x="124" y="403" width="31" height="31" transform="rotate(0,139.5,418.5)"/><rect x="124" y="434" width="31" height="31" transform="rotate(0,139.5,449.5)"/><rect x="124" y="465" width="31" height="31" transform="rotate(0,139.5,480.5)"/><path d="M 124 496v 31h 31v -15.5a 15.5 15.5, 0, 0, 0, -15.5 -15.5" transform="rotate(90,139.5,511.5)"/><rect x="124" y="558" width="31" height="31" transform="rotate(0,139.5,573.5)"/><path d="M 124 620v 31h 15.5a 15.5 15.5, 0, 0, 0, 0 -31" transform="rotate(-90,139.5,635.5)"/><rect x="124" y="651" width="31" height="31" transform="rotate(0,139.5,666.5)"/><path d="M 124 682v 31h 31v -15.5a 15.5 15.5, 0, 0, 0, -15.5 -15.5" transform="rotate(180,139.5,697.5)"/><path d="M 155 341v 31h 15.5a 15.5 15.5, 0, 0, 0, 0 -31" transform="rotate(180,170.5,356.5)"/><path d="M 155 558v 31h 31v -15.5a 15.5 15.5, 0, 0, 0, -15.5 -15.5" transform="rotate(0,170.5,573.5)"/><path d="M 155 589v 31h 15.5a 15.5 15.5, 0, 0, 0, 0 -31" transform="rotate(90,170.5,604.5)"/><rect x="155" y="651" width="31" height="31" transform="rotate(0,170.5,666.5)"/><rect x="155" y="682" width="31" height="31" transform="rotate(0,170.5,697.5)"/><path d="M 186 341v 31h 31v -15.5a 15.5 15.5, 0, 0, 0, -15.5 -15.5" transform="rotate(0,201.5,356.5)"/><rect x="186" y="372" width="31" height="31" transform="rotate(0,201.5,387.5)"/><path d="M 186 403v 31h 31v -15.5a 15.5 15.5, 0, 0, 0, -15.5 -15.5" transform="rotate(180,201.5,418.5)"/><path d="M 186 465v 31h 15.5a 15.5 15.5, 0, 0, 0, 0 -31" transform="rotate(180,201.5,480.5)"/><circle cx="201.5" cy="542.5" r="15.5" transform="rotate(0,201.5,542.5)"/><path d="M 186 651v 31h 31v -15.5a 15.5 15.5, 0, 0, 0, -15.5 -15.5" transform="rotate(0,201.5,666.5)"/><path d="M 186 682v 31h 31v -15.5a 15.5 15.5, 0, 0, 0, -15.5 -15.5" transform="rotate(90,201.5,697.5)"/><path d="M 217 403v 31h 31v -15.5a 15.5 15.5, 0, 0, 0, -15.5 -15.5" transform="rotate(0,232.5,418.5)"/><rect x="217" y="434" width="31" height="31" transform="rotate(0,232.5,449.5)"/><path d="M 217 465v 31h 31v -15.5a 15.5 15.5, 0, 0, 0, -15.5 -15.5" transform="rotate(90,232.5,480.5)"/><path d="M 217 620v 31h 15.5a 15.5 15.5, 0, 0, 0, 0 -31" transform="rotate(180,232.5,635.5)"/><circle cx="263.5" cy="325.5" r="15.5" transform="rotate(0,263.5,325.5)"/><path d="M 248 372v 31h 15.5a 15.5 15.5, 0, 0, 0, 0 -31" transform="rotate(180,263.5,387.5)"/><rect x="248" y="434" width="31" height="31" transform="rotate(0,263.5,449.5)"/><circle cx="263.5" cy="511.5" r="15.5" transform="rotate(0,263.5,511.5)"/><path d="M 248 558v 31h 15.5a 15.5 15.5, 0, 0, 0, 0 -31" transform="rotate(180,263.5,573.5)"/><path d="M 248 620v 31h 15.5a 15.5 15.5, 0, 0, 0, 0 -31" transform="rotate(0,263.5,635.5)"/><circle cx="263.5" cy="697.5" r="15.5" transform="rotate(0,263.5,697.5)"/><path d="M 279 341v 31h 31v -15.5a 15.5 15.5, 0, 0, 0, -15.5 -15.5" transform="rotate(-90,294.5,356.5)"/><path d="M 279 372v 31h 31v -15.5a 15.5 15.5, 0, 0, 0, -15.5 -15.5" transform="rotate(90,294.5,387.5)"/><path d="M 279 434v 31h 15.5a 15.5 15.5, 0, 0, 0, 0 -31" transform="rotate(0,294.5,449.5)"/><path d="M 279 527v 31h 15.5a 15.5 15.5, 0, 0, 0, 0 -31" transform="rotate(-90,294.5,542.5)"/><rect x="279" y="558" width="31" height="31" transform="rotate(0,294.5,573.5)"/><circle cx="294.5" cy="666.5" r="15.5" transform="rotate(0,294.5,666.5)"/><circle cx="325.5" cy="108.5" r="15.5" transform="rotate(0,325.5,108.5)"/><path d="M 310 248v 31h 15.5a 15.5 15.5, 0, 0, 0, 0 -31" transform="rotate(-90,325.5,263.5)"/><rect x="310" y="279" width="31" height="31" transform="rotate(0,325.5,294.5)"/><rect x="310" y="310" width="31" height="31" transform="rotate(0,325.5,325.5)"/><rect x="310" y="341" width="31" height="31" transform="rotate(0,325.5,356.5)"/><path d="M 310 403v 31h 15.5a 15.5 15.5, 0, 0, 0, 0 -31" transform="rotate(180,325.5,418.5)"/><path d="M 310 465v 31h 31v -15.5a 15.5 15.5, 0, 0, 0, -15.5 -15.5" transform="rotate(-90,325.5,480.5)"/><path d="M 310 496v 31h 15.5a 15.5 15.5, 0, 0, 0, 0 -31" transform="rotate(90,325.5,511.5)"/><rect x="310" y="558" width="31" height="31" transform="rotate(0,325.5,573.5)"/><circle cx="325.5" cy="635.5" r="15.5" transform="rotate(0,325.5,635.5)"/><circle cx="325.5" cy="728.5" r="15.5" transform="rotate(0,325.5,728.5)"/><path d="M 310 899v 31h 31v -15.5a 15.5 15.5, 0, 0, 0, -15.5 -15.5" transform="rotate(-90,325.5,914.5)"/><path d="M 310 930v 31h 15.5a 15.5 15.5, 0, 0, 0, 0 -31" transform="rotate(90,325.5,945.5)"/><path d="M 341 155v 31h 15.5a 15.5 15.5, 0, 0, 0, 0 -31" transform="rotate(180,356.5,170.5)"/><path d="M 341 217v 31h 15.5a 15.5 15.5, 0, 0, 0, 0 -31" transform="rotate(180,356.5,232.5)"/><rect x="341" y="279" width="31" height="31" transform="rotate(0,356.5,294.5)"/><rect x="341" y="310" width="31" height="31" transform="rotate(0,356.5,325.5)"/><rect x="341" y="341" width="31" height="31" transform="rotate(0,356.5,356.5)"/><rect x="341" y="372" width="31" height="31" transform="rotate(0,356.5,387.5)"/><rect x="341" y="403" width="31" height="31" transform="rotate(0,356.5,418.5)"/><rect x="341" y="434" width="31" height="31" transform="rotate(0,356.5,449.5)"/><rect x="341" y="465" width="31" height="31" transform="rotate(0,356.5,480.5)"/><rect x="341" y="558" width="31" height="31" transform="rotate(0,356.5,573.5)"/><path d="M 341 589v 31h 15.5a 15.5 15.5, 0, 0, 0, 0 -31" transform="rotate(90,356.5,604.5)"/><circle cx="356.5" cy="697.5" r="15.5" transform="rotate(0,356.5,697.5)"/><path d="M 341 775v 31h 15.5a 15.5 15.5, 0, 0, 0, 0 -31" transform="rotate(-90,356.5,790.5)"/><path d="M 341 806v 31h 15.5a 15.5 15.5, 0, 0, 0, 0 -31" transform="rotate(90,356.5,821.5)"/><path d="M 341 868v 31h 15.5a 15.5 15.5, 0, 0, 0, 0 -31" transform="rotate(-90,356.5,883.5)"/><path d="M 341 899v 31h 31v -15.5a 15.5 15.5, 0, 0, 0, -15.5 -15.5" transform="rotate(90,356.5,914.5)"/><path d="M 372 124v 31h 31v -15.5a 15.5 15.5, 0, 0, 0, -15.5 -15.5" transform="rotate(-90,387.5,139.5)"/><rect x="372" y="155" width="31" height="31" transform="rotate(0,387.5,170.5)"/><rect x="372" y="186" width="31" height="31" transform="rotate(0,387.5,201.5)"/><rect x="372" y="217" width="31" height="31" transform="rotate(0,387.5,232.5)"/><rect x="372" y="248" width="31" height="31" transform="rotate(0,387.5,263.5)"/><rect x="372" y="279" width="31" height="31" transform="rotate(0,387.5,294.5)"/><rect x="372" y="310" width="31" height="31" transform="rotate(0,387.5,325.5)"/><path d="M 372 372v 31h 31v -15.5a 15.5 15.5, 0, 0, 0, -15.5 -15.5" transform="rotate(0,387.5,387.5)"/><rect x="372" y="403" width="31" height="31" transform="rotate(0,387.5,418.5)"/><rect x="372" y="465" width="31" height="31" transform="rotate(0,387.5,480.5)"/><path d="M 372 496v 31h 15.5a 15.5 15.5, 0, 0, 0, 0 -31" transform="rotate(90,387.5,511.5)"/><rect x="372" y="558" width="31" height="31" transform="rotate(0,387.5,573.5)"/><circle cx="387.5" cy="635.5" r="15.5" transform="rotate(0,387.5,635.5)"/><path d="M 372 713v 31h 15.5a 15.5 15.5, 0, 0, 0, 0 -31" transform="rotate(-90,387.5,728.5)"/><path d="M 372 744v 31h 31v -15.5a 15.5 15.5, 0, 0, 0, -15.5 -15.5" transform="rotate(180,387.5,759.5)"/><path d="M 372 837v 31h 15.5a 15.5 15.5, 0, 0, 0, 0 -31" transform="rotate(180,387.5,852.5)"/><path d="M 403 93v 31h 31v -15.5a 15.5 15.5, 0, 0, 0, -15.5 -15.5" transform="rotate(-90,418.5,108.5)"/><rect x="403" y="124" width="31" height="31" transform="rotate(0,418.5,139.5)"/><rect x="403" y="155" width="31" height="31" transform="rotate(0,418.5,170.5)"/><rect x="403" y="186" width="31" height="31" transform="rotate(0,418.5,201.5)"/><rect x="403" y="217" width="31" height="31" transform="rotate(0,418.5,232.5)"/><rect x="403" y="310" width="31" height="31" transform="rotate(0,418.5,325.5)"/><path d="M 403 403v 31h 15.5a 15.5 15.5, 0, 0, 0, 0 -31" transform="rotate(0,418.5,418.5)"/><rect x="403" y="465" width="31" height="31" transform="rotate(0,418.5,480.5)"/><path d="M 403 558v 31h 15.5a 15.5 15.5, 0, 0, 0, 0 -31" transform="rotate(0,418.5,573.5)"/><path d="M 403 651v 31h 31v -15.5a 15.5 15.5, 0, 0, 0, -15.5 -15.5" transform="rotate(-90,418.5,666.5)"/><path d="M 403 682v 31h 15.5a 15.5 15.5, 0, 0, 0, 0 -31" transform="rotate(90,418.5,697.5)"/><rect x="403" y="744" width="31" height="31" transform="rotate(0,418.5,759.5)"/><rect x="403" y="837" width="31" height="31" transform="rotate(0,418.5,852.5)"/><rect x="434" y="93" width="31" height="31" transform="rotate(0,449.5,108.5)"/><path d="M 434 155v 31h 15.5a 15.5 15.5, 0, 0, 0, 0 -31" transform="rotate(0,449.5,170.5)"/><rect x="434" y="217" width="31" height="31" transform="rotate(0,449.5,232.5)"/><rect x="434" y="248" width="31" height="31" transform="rotate(0,449.5,263.5)"/><rect x="434" y="279" width="31" height="31" transform="rotate(0,449.5,294.5)"/><rect x="434" y="310" width="31" height="31" transform="rotate(0,449.5,325.5)"/><rect x="434" y="341" width="31" height="31" transform="rotate(0,449.5,356.5)"/><path d="M 434 372v 31h 15.5a 15.5 15.5, 0, 0, 0, 0 -31" transform="rotate(90,449.5,387.5)"/><path d="M 434 465v 31h 15.5a 15.5 15.5, 0, 0, 0, 0 -31" transform="rotate(0,449.5,480.5)"/><path d="M 434 527v 31h 15.5a 15.5 15.5, 0, 0, 0, 0 -31" transform="rotate(180,449.5,542.5)"/><path d="M 434 620v 31h 31v -15.5a 15.5 15.5, 0, 0, 0, -15.5 -15.5" transform="rotate(-90,449.5,635.5)"/><rect x="434" y="651" width="31" height="31" transform="rotate(0,449.5,666.5)"/><path d="M 434 713v 31h 15.5a 15.5 15.5, 0, 0, 0, 0 -31" transform="rotate(-90,449.5,728.5)"/><rect x="434" y="744" width="31" height="31" transform="rotate(0,449.5,759.5)"/><rect x="434" y="837" width="31" height="31" transform="rotate(0,449.5,852.5)"/><rect x="434" y="868" width="31" height="31" transform="rotate(0,449.5,883.5)"/><path d="M 434 899v 31h 15.5a 15.5 15.5, 0, 0, 0, 0 -31" transform="rotate(90,449.5,914.5)"/><path d="M 465 93v 31h 15.5a 15.5 15.5, 0, 0, 0, 0 -31" transform="rotate(0,480.5,108.5)"/><path d="M 465 217v 31h 15.5a 15.5 15.5, 0, 0, 0, 0 -31" transform="rotate(0,480.5,232.5)"/><circle cx="480.5" cy="418.5" r="15.5" transform="rotate(0,480.5,418.5)"/><path d="M 465 496v 31h 15.5a 15.5 15.5, 0, 0, 0, 0 -31" transform="rotate(-90,480.5,511.5)"/><path d="M 465 527v 31h 31v -15.5a 15.5 15.5, 0, 0, 0, -15.5 -15.5" transform="rotate(90,480.5,542.5)"/><path d="M 465 589v 31h 31v -15.5a 15.5 15.5, 0, 0, 0, -15.5 -15.5" transform="rotate(-90,480.5,604.5)"/><rect x="465" y="620" width="31" height="31" transform="rotate(0,480.5,635.5)"/><rect x="465" y="651" width="31" height="31" transform="rotate(0,480.5,666.5)"/><path d="M 465 682v 31h 31v -15.5a 15.5 15.5, 0, 0, 0, -15.5 -15.5" transform="rotate(180,480.5,697.5)"/><rect x="465" y="744" width="31" height="31" transform="rotate(0,480.5,759.5)"/><path d="M 465 806v 31h 15.5a 15.5 15.5, 0, 0, 0, 0 -31" transform="rotate(-90,480.5,821.5)"/><path d="M 465 837v 31h 31v -15.5a 15.5 15.5, 0, 0, 0, -15.5 -15.5" transform="rotate(90,480.5,852.5)"/><circle cx="480.5" cy="945.5" r="15.5" transform="rotate(0,480.5,945.5)"/><circle cx="511.5" cy="77.5" r="15.5" transform="rotate(0,511.5,77.5)"/><path d="M 496 155v 31h 15.5a 15.5 15.5, 0, 0, 0, 0 -31" transform="rotate(180,511.5,170.5)"/><path d="M 496 248v 31h 15.5a 15.5 15.5, 0, 0, 0, 0 -31" transform="rotate(-90,511.5,263.5)"/><path d="M 496 279v 31h 31v -15.5a 15.5 15.5, 0, 0, 0, -15.5 -15.5" transform="rotate(180,511.5,294.5)"/><path d="M 496 341v 31h 31v -15.5a 15.5 15.5, 0, 0, 0, -15.5 -15.5" transform="rotate(-90,511.5,356.5)"/><path d="M 496 372v 31h 31v -15.5a 15.5 15.5, 0, 0, 0, -15.5 -15.5" transform="rotate(180,511.5,387.5)"/><path d="M 496 434v 31h 15.5a 15.5 15.5, 0, 0, 0, 0 -31" transform="rotate(-90,511.5,449.5)"/><path d="M 496 465v 31h 15.5a 15.5 15.5, 0, 0, 0, 0 -31" transform="rotate(90,511.5,480.5)"/><rect x="496" y="589" width="31" height="31" transform="rotate(0,511.5,604.5)"/><rect x="496" y="682" width="31" height="31" transform="rotate(0,511.5,697.5)"/><rect x="496" y="713" width="31" height="31" transform="rotate(0,511.5,728.5)"/><rect x="496" y="744" width="31" height="31" transform="rotate(0,511.5,759.5)"/><path d="M 496 775v 31h 15.5a 15.5 15.5, 0, 0, 0, 0 -31" transform="rotate(90,511.5,790.5)"/><path d="M 527 93v 31h 15.5a 15.5 15.5, 0, 0, 0, 0 -31" transform="rotate(-90,542.5,108.5)"/><rect x="527" y="124" width="31" height="31" transform="rotate(0,542.5,139.5)"/><rect x="527" y="155" width="31" height="31" transform="rotate(0,542.5,170.5)"/><path d="M 527 186v 31h 15.5a 15.5 15.5, 0, 0, 0, 0 -31" transform="rotate(90,542.5,201.5)"/><path d="M 527 279v 31h 31v -15.5a 15.5 15.5, 0, 0, 0, -15.5 -15.5" transform="rotate(0,542.5,294.5)"/><rect x="527" y="310" width="31" height="31" transform="rotate(0,542.5,325.5)"/><rect x="527" y="341" width="31" height="31" transform="rotate(0,542.5,356.5)"/><path d="M 527 372v 31h 31v -15.5a 15.5 15.5, 0, 0, 0, -15.5 -15.5" transform="rotate(90,542.5,387.5)"/><path d="M 527 527v 31h 15.5a 15.5 15.5, 0, 0, 0, 0 -31" transform="rotate(180,542.5,542.5)"/><path d="M 527 589v 31h 31v -15.5a 15.5 15.5, 0, 0, 0, -15.5 -15.5" transform="rotate(0,542.5,604.5)"/><path d="M 527 620v 31h 15.5a 15.5 15.5, 0, 0, 0, 0 -31" transform="rotate(90,542.5,635.5)"/><path d="M 527 682v 31h 15.5a 15.5 15.5, 0, 0, 0, 0 -31" transform="rotate(0,542.5,697.5)"/><path d="M 527 806v 31h 31v -15.5a 15.5 15.5, 0, 0, 0, -15.5 -15.5" transform="rotate(-90,542.5,821.5)"/><rect x="527" y="837" width="31" height="31" transform="rotate(0,542.5,852.5)"/><path d="M 527 868v 31h 31v -15.5a 15.5 15.5, 0, 0, 0, -15.5 -15.5" transform="rotate(180,542.5,883.5)"/><circle cx="542.5" cy="945.5" r="15.5" transform="rotate(0,542.5,945.5)"/><rect x="558" y="155" width="31" height="31" transform="rotate(0,573.5,170.5)"/><path d="M 558 217v 31h 15.5a 15.5 15.5, 0, 0, 0, 0 -31" transform="rotate(-90,573.5,232.5)"/><path d="M 558 248v 31h 15.5a 15.5 15.5, 0, 0, 0, 0 -31" transform="rotate(90,573.5,263.5)"/><path d="M 558 403v 31h 31v -15.5a 15.5 15.5, 0, 0, 0, -15.5 -15.5" transform="rotate(-90,573.5,418.5)"/><rect x="558" y="434" width="31" height="31" transform="rotate(0,573.5,449.5)"/><rect x="558" y="465" width="31" height="31" transform="rotate(0,573.5,480.5)"/><rect x="558" y="496" width="31" height="31" transform="rotate(0,573.5,511.5)"/><rect x="558" y="527" width="31" height="31" transform="rotate(0,573.5,542.5)"/><path d="M 558 558v 31h 15.5a 15.5 15.5, 0, 0, 0, 0 -31" transform="rotate(90,573.5,573.5)"/><path d="M 558 775v 31h 31v -15.5a 15.5 15.5, 0, 0, 0, -15.5 -15.5" transform="rotate(-90,573.5,790.5)"/><rect x="558" y="806" width="31" height="31" transform="rotate(0,573.5,821.5)"/><rect x="558" y="837" width="31" height="31" transform="rotate(0,573.5,852.5)"/><path d="M 558 868v 31h 31v -15.5a 15.5 15.5, 0, 0, 0, -15.5 -15.5" transform="rotate(90,573.5,883.5)"/><path d="M 589 62v 31h 15.5a 15.5 15.5, 0, 0, 0, 0 -31" transform="rotate(180,604.5,77.5)"/><path d="M 589 124v 31h 15.5a 15.5 15.5, 0, 0, 0, 0 -31" transform="rotate(-90,604.5,139.5)"/><path d="M 589 155v 31h 31v -15.5a 15.5 15.5, 0, 0, 0, -15.5 -15.5" transform="rotate(90,604.5,170.5)"/><path d="M 589 310v 31h 15.5a 15.5 15.5, 0, 0, 0, 0 -31" transform="rotate(180,604.5,325.5)"/><path d="M 589 403v 31h 15.5a 15.5 15.5, 0, 0, 0, 0 -31" transform="rotate(0,604.5,418.5)"/><path d="M 589 465v 31h 31v -15.5a 15.5 15.5, 0, 0, 0, -15.5 -15.5" transform="rotate(0,604.5,480.5)"/><path d="M 589 496v 31h 31v -15.5a 15.5 15.5, 0, 0, 0, -15.5 -15.5" transform="rotate(90,604.5,511.5)"/><path d="M 589 589v 31h 15.5a 15.5 15.5, 0, 0, 0, 0 -31" transform="rotate(-90,604.5,604.5)"/><path d="M 589 620v 31h 15.5a 15.5 15.5, 0, 0, 0, 0 -31" transform="rotate(90,604.5,635.5)"/><path d="M 589 682v 31h 15.5a 15.5 15.5, 0, 0, 0, 0 -31" transform="rotate(180,604.5,697.5)"/><path d="M 589 744v 31h 15.5a 15.5 15.5, 0, 0, 0, 0 -31" transform="rotate(-90,604.5,759.5)"/><rect x="589" y="775" width="31" height="31" transform="rotate(0,604.5,790.5)"/><rect x="589" y="806" width="31" height="31" transform="rotate(0,604.5,821.5)"/><rect x="589" y="837" width="31" height="31" transform="rotate(0,604.5,852.5)"/><path d="M 589 930v 31h 15.5a 15.5 15.5, 0, 0, 0, 0 -31" transform="rotate(180,604.5,945.5)"/><rect x="620" y="62" width="31" height="31" transform="rotate(0,635.5,77.5)"/><path d="M 620 93v 31h 15.5a 15.5 15.5, 0, 0, 0, 0 -31" transform="rotate(90,635.5,108.5)"/><path d="M 620 186v 31h 15.5a 15.5 15.5, 0, 0, 0, 0 -31" transform="rotate(-90,635.5,201.5)"/><rect x="620" y="217" width="31" height="31" transform="rotate(0,635.5,232.5)"/><rect x="620" y="248" width="31" height="31" transform="rotate(0,635.5,263.5)"/><rect x="620" y="279" width="31" height="31" transform="rotate(0,635.5,294.5)"/><rect x="620" y="310" width="31" height="31" transform="rotate(0,635.5,325.5)"/><path d="M 620 341v 31h 31v -15.5a 15.5 15.5, 0, 0, 0, -15.5 -15.5" transform="rotate(180,635.5,356.5)"/><circle cx="635.5" cy="542.5" r="15.5" transform="rotate(0,635.5,542.5)"/><path d="M 620 651v 31h 15.5a 15.5 15.5, 0, 0, 0, 0 -31" transform="rotate(-90,635.5,666.5)"/><rect x="620" y="682" width="31" height="31" transform="rotate(0,635.5,697.5)"/><rect x="620" y="837" width="31" height="31" transform="rotate(0,635.5,852.5)"/><rect x="620" y="930" width="31" height="31" transform="rotate(0,635.5,945.5)"/><rect x="651" y="62" width="31" height="31" transform="rotate(0,666.5,77.5)"/><path d="M 651 217v 31h 15.5a 15.5 15.5, 0, 0, 0, 0 -31" transform="rotate(0,666.5,232.5)"/><path d="M 651 310v 31h 31v -15.5a 15.5 15.5, 0, 0, 0, -15.5 -15.5" transform="rotate(0,666.5,325.5)"/><rect x="651" y="341" width="31" height="31" transform="rotate(0,666.5,356.5)"/><path d="M 651 403v 31h 15.5a 15.5 15.5, 0, 0, 0, 0 -31" transform="rotate(180,666.5,418.5)"/><path d="M 651 465v 31h 15.5a 15.5 15.5, 0, 0, 0, 0 -31" transform="rotate(-90,666.5,480.5)"/><path d="M 651 496v 31h 31v -15.5a 15.5 15.5, 0, 0, 0, -15.5 -15.5" transform="rotate(180,666.5,511.5)"/><circle cx="666.5" cy="635.5" r="15.5" transform="rotate(0,666.5,635.5)"/><rect x="651" y="682" width="31" height="31" transform="rotate(0,666.5,697.5)"/><rect x="651" y="713" width="31" height="31" transform="rotate(0,666.5,728.5)"/><rect x="651" y="744" width="31" height="31" transform="rotate(0,666.5,759.5)"/><path d="M 651 775v 31h 31v -15.5a 15.5 15.5, 0, 0, 0, -15.5 -15.5" transform="rotate(180,666.5,790.5)"/><path d="M 651 837v 31h 15.5a 15.5 15.5, 0, 0, 0, 0 -31" transform="rotate(0,666.5,852.5)"/><rect x="651" y="930" width="31" height="31" transform="rotate(0,666.5,945.5)"/><path d="M 682 62v 31h 15.5a 15.5 15.5, 0, 0, 0, 0 -31" transform="rotate(0,697.5,77.5)"/><path d="M 682 124v 31h 15.5a 15.5 15.5, 0, 0, 0, 0 -31" transform="rotate(-90,697.5,139.5)"/><rect x="682" y="155" width="31" height="31" transform="rotate(0,697.5,170.5)"/><path d="M 682 186v 31h 15.5a 15.5 15.5, 0, 0, 0, 0 -31" transform="rotate(90,697.5,201.5)"/><path d="M 682 248v 31h 15.5a 15.5 15.5, 0, 0, 0, 0 -31" transform="rotate(-90,697.5,263.5)"/><path d="M 682 279v 31h 15.5a 15.5 15.5, 0, 0, 0, 0 -31" transform="rotate(90,697.5,294.5)"/><rect x="682" y="341" width="31" height="31" transform="rotate(0,697.5,356.5)"/><rect x="682" y="403" width="31" height="31" transform="rotate(0,697.5,418.5)"/><path d="M 682 434v 31h 15.5a 15.5 15.5, 0, 0, 0, 0 -31" transform="rotate(90,697.5,449.5)"/><path d="M 682 496v 31h 31v -15.5a 15.5 15.5, 0, 0, 0, -15.5 -15.5" transform="rotate(0,697.5,511.5)"/><path d="M 682 527v 31h 31v -15.5a 15.5 15.5, 0, 0, 0, -15.5 -15.5" transform="rotate(180,697.5,542.5)"/><circle cx="697.5" cy="604.5" r="15.5" transform="rotate(0,697.5,604.5)"/><path d="M 682 651v 31h 31v -15.5a 15.5 15.5, 0, 0, 0, -15.5 -15.5" transform="rotate(-90,697.5,666.5)"/><rect x="682" y="682" width="31" height="31" transform="rotate(0,697.5,697.5)"/><rect x="682" y="713" width="31" height="31" transform="rotate(0,697.5,728.5)"/><rect x="682" y="744" width="31" height="31" transform="rotate(0,697.5,759.5)"/><rect x="682" y="775" width="31" height="31" transform="rotate(0,697.5,790.5)"/><path d="M 682 806v 31h 31v -15.5a 15.5 15.5, 0, 0, 0, -15.5 -15.5" transform="rotate(180,697.5,821.5)"/><path d="M 682 868v 31h 31v -15.5a 15.5 15.5, 0, 0, 0, -15.5 -15.5" transform="rotate(-90,697.5,883.5)"/><rect x="682" y="899" width="31" height="31" transform="rotate(0,697.5,914.5)"/><path d="M 682 930v 31h 31v -15.5a 15.5 15.5, 0, 0, 0, -15.5 -15.5" transform="rotate(90,697.5,945.5)"/><path d="M 713 310v 31h 31v -15.5a 15.5 15.5, 0, 0, 0, -15.5 -15.5" transform="rotate(-90,728.5,325.5)"/><rect x="713" y="341" width="31" height="31" transform="rotate(0,728.5,356.5)"/><rect x="713" y="372" width="31" height="31" transform="rotate(0,728.5,387.5)"/><path d="M 713 403v 31h 31v -15.5a 15.5 15.5, 0, 0, 0, -15.5 -15.5" transform="rotate(90,728.5,418.5)"/><rect x="713" y="527" width="31" height="31" transform="rotate(0,728.5,542.5)"/><path d="M 713 558v 31h 31v -15.5a 15.5 15.5, 0, 0, 0, -15.5 -15.5" transform="rotate(180,728.5,573.5)"/><path d="M 713 620v 31h 31v -15.5a 15.5 15.5, 0, 0, 0, -15.5 -15.5" transform="rotate(-90,728.5,635.5)"/><rect x="713" y="651" width="31" height="31" transform="rotate(0,728.5,666.5)"/><rect x="713" y="682" width="31" height="31" transform="rotate(0,728.5,697.5)"/><rect x="713" y="806" width="31" height="31" transform="rotate(0,728.5,821.5)"/><rect x="713" y="837" width="31" height="31" transform="rotate(0,728.5,852.5)"/><rect x="713" y="868" width="31" height="31" transform="rotate(0,728.5,883.5)"/><path d="M 713 899v 31h 31v -15.5a 15.5 15.5, 0, 0, 0, -15.5 -15.5" transform="rotate(90,728.5,914.5)"/><path d="M 744 310v 31h 31v -15.5a 15.5 15.5, 0, 0, 0, -15.5 -15.5" transform="rotate(0,759.5,325.5)"/><rect x="744" y="341" width="31" height="31" transform="rotate(0,759.5,356.5)"/><path d="M 744 496v 31h 15.5a 15.5 15.5, 0, 0, 0, 0 -31" transform="rotate(-90,759.5,511.5)"/><rect x="744" y="527" width="31" height="31" transform="rotate(0,759.5,542.5)"/><rect x="744" y="558" width="31" height="31" transform="rotate(0,759.5,573.5)"/><path d="M 744 620v 31h 31v -15.5a 15.5 15.5, 0, 0, 0, -15.5 -15.5" transform="rotate(0,759.5,635.5)"/><rect x="744" y="651" width="31" height="31" transform="rotate(0,759.5,666.5)"/><rect x="744" y="682" width="31" height="31" transform="rotate(0,759.5,697.5)"/><circle cx="759.5" cy="759.5" r="15.5" transform="rotate(0,759.5,759.5)"/><rect x="744" y="806" width="31" height="31" transform="rotate(0,759.5,821.5)"/><rect x="775" y="341" width="31" height="31" transform="rotate(0,790.5,356.5)"/><rect x="775" y="372" width="31" height="31" transform="rotate(0,790.5,387.5)"/><rect x="775" y="403" width="31" height="31" transform="rotate(0,790.5,418.5)"/><path d="M 775 434v 31h 15.5a 15.5 15.5, 0, 0, 0, 0 -31" transform="rotate(90,790.5,449.5)"/><path d="M 775 527v 31h 31v -15.5a 15.5 15.5, 0, 0, 0, -15.5 -15.5" transform="rotate(0,790.5,542.5)"/><rect x="775" y="558" width="31" height="31" transform="rotate(0,790.5,573.5)"/><rect x="775" y="651" width="31" height="31" transform="rotate(0,790.5,666.5)"/><rect x="775" y="682" width="31" height="31" transform="rotate(0,790.5,697.5)"/><rect x="775" y="806" width="31" height="31" transform="rotate(0,790.5,821.5)"/><path d="M 775 837v 31h 15.5a 15.5 15.5, 0, 0, 0, 0 -31" transform="rotate(90,790.5,852.5)"/><path d="M 775 899v 31h 15.5a 15.5 15.5, 0, 0, 0, 0 -31" transform="rotate(-90,790.5,914.5)"/><path d="M 775 930v 31h 15.5a 15.5 15.5, 0, 0, 0, 0 -31" transform="rotate(90,790.5,945.5)"/><path d="M 806 341v 31h 15.5a 15.5 15.5, 0, 0, 0, 0 -31" transform="rotate(0,821.5,356.5)"/><rect x="806" y="558" width="31" height="31" transform="rotate(0,821.5,573.5)"/><rect x="806" y="589" width="31" height="31" transform="rotate(0,821.5,604.5)"/><rect x="806" y="620" width="31" height="31" transform="rotate(0,821.5,635.5)"/><rect x="806" y="651" width="31" height="31" transform="rotate(0,821.5,666.5)"/><rect x="806" y="682" width="31" height="31" transform="rotate(0,821.5,697.5)"/><rect x="806" y="713" width="31" height="31" transform="rotate(0,821.5,728.5)"/><rect x="806" y="744" width="31" height="31" transform="rotate(0,821.5,759.5)"/><rect x="806" y="775" width="31" height="31" transform="rotate(0,821.5,790.5)"/><path d="M 806 806v 31h 31v -15.5a 15.5 15.5, 0, 0, 0, -15.5 -15.5" transform="rotate(90,821.5,821.5)"/><path d="M 837 372v 31h 15.5a 15.5 15.5, 0, 0, 0, 0 -31" transform="rotate(180,852.5,387.5)"/><path d="M 837 465v 31h 31v -15.5a 15.5 15.5, 0, 0, 0, -15.5 -15.5" transform="rotate(-90,852.5,480.5)"/><path d="M 837 496v 31h 31v -15.5a 15.5 15.5, 0, 0, 0, -15.5 -15.5" transform="rotate(180,852.5,511.5)"/><path d="M 837 558v 31h 31v -15.5a 15.5 15.5, 0, 0, 0, -15.5 -15.5" transform="rotate(0,852.5,573.5)"/><path d="M 837 589v 31h 31v -15.5a 15.5 15.5, 0, 0, 0, -15.5 -15.5" transform="rotate(90,852.5,604.5)"/><rect x="837" y="651" width="31" height="31" transform="rotate(0,852.5,666.5)"/><rect x="837" y="682" width="31" height="31" transform="rotate(0,852.5,697.5)"/><rect x="837" y="775" width="31" height="31" transform="rotate(0,852.5,790.5)"/><path d="M 837 899v 31h 15.5a 15.5 15.5, 0, 0, 0, 0 -31" transform="rotate(180,852.5,914.5)"/><path d="M 868 372v 31h 15.5a 15.5 15.5, 0, 0, 0, 0 -31" transform="rotate(0,883.5,387.5)"/><path d="M 868 465v 31h 31v -15.5a 15.5 15.5, 0, 0, 0, -15.5 -15.5" transform="rotate(0,883.5,480.5)"/><path d="M 868 496v 31h 31v -15.5a 15.5 15.5, 0, 0, 0, -15.5 -15.5" transform="rotate(90,883.5,511.5)"/><path d="M 868 620v 31h 15.5a 15.5 15.5, 0, 0, 0, 0 -31" transform="rotate(-90,883.5,635.5)"/><rect x="868" y="651" width="31" height="31" transform="rotate(0,883.5,666.5)"/><rect x="868" y="682" width="31" height="31" transform="rotate(0,883.5,697.5)"/><rect x="868" y="713" width="31" height="31" transform="rotate(0,883.5,728.5)"/><rect x="868" y="744" width="31" height="31" transform="rotate(0,883.5,759.5)"/><rect x="868" y="775" width="31" height="31" transform="rotate(0,883.5,790.5)"/><rect x="868" y="806" width="31" height="31" transform="rotate(0,883.5,821.5)"/><path d="M 868 837v 31h 31v -15.5a 15.5 15.5, 0, 0, 0, -15.5 -15.5" transform="rotate(180,883.5,852.5)"/><path d="M 868 899v 31h 15.5a 15.5 15.5, 0, 0, 0, 0 -31" transform="rotate(0,883.5,914.5)"/><circle cx="914.5" cy="325.5" r="15.5" transform="rotate(0,914.5,325.5)"/><path d="M 899 403v 31h 31v -15.5a 15.5 15.5, 0, 0, 0, -15.5 -15.5" transform="rotate(-90,914.5,418.5)"/><path d="M 899 434v 31h 15.5a 15.5 15.5, 0, 0, 0, 0 -31" transform="rotate(90,914.5,449.5)"/><circle cx="914.5" cy="542.5" r="15.5" transform="rotate(0,914.5,542.5)"/><rect x="899" y="806" width="31" height="31" transform="rotate(0,914.5,821.5)"/><rect x="899" y="837" width="31" height="31" transform="rotate(0,914.5,852.5)"/><path d="M 899 868v 31h 31v -15.5a 15.5 15.5, 0, 0, 0, -15.5 -15.5" transform="rotate(180,914.5,883.5)"/><circle cx="914.5" cy="945.5" r="15.5" transform="rotate(0,914.5,945.5)"/><path d="M 930 403v 31h 15.5a 15.5 15.5, 0, 0, 0, 0 -31" transform="rotate(0,945.5,418.5)"/><circle cx="945.5" cy="480.5" r="15.5" transform="rotate(0,945.5,480.5)"/><circle cx="945.5" cy="604.5" r="15.5" transform="rotate(0,945.5,604.5)"/><circle cx="945.5" cy="666.5" r="15.5" transform="rotate(0,945.5,666.5)"/><circle cx="945.5" cy="759.5" r="15.5" transform="rotate(0,945.5,759.5)"/><path d="M 930 806v 31h 15.5a 15.5 15.5, 0, 0, 0, 0 -31" transform="rotate(0,945.5,821.5)"/><path d="M 930 868v 31h 15.5a 15.5 15.5, 0, 0, 0, 0 -31" transform="rotate(0,945.5,883.5)"/></clipPath><clipPath id="clip-path-corners-square-color-0-0"><path d="M 62 62v 31h 31v -15.5a 15.5 15.5, 0, 0, 0, -15.5 -15.5" transform="rotate(-90,77.5,77.5)"/><rect x="62" y="93" width="31" height="31" transform="rotate(0,77.5,108.5)"/><rect x="62" y="124" width="31" height="31" transform="rotate(0,77.5,139.5)"/><rect x="62" y="155" width="31" height="31" transform="rotate(0,77.5,170.5)"/><rect x="62" y="186" width="31" height="31" transform="rotate(0,77.5,201.5)"/><rect x="62" y="217" width="31" height="31" transform="rotate(0,77.5,232.5)"/><path d="M 62 248v 31h 31v -15.5a 15.5 15.5, 0, 0, 0, -15.5 -15.5" transform="rotate(180,77.5,263.5)"/><rect x="93" y="62" width="31" height="31" transform="rotate(0,108.5,77.5)"/><rect x="93" y="248" width="31" height="31" transform="rotate(0,108.5,263.5)"/><rect x="124" y="62" width="31" height="31" transform="rotate(0,139.5,77.5)"/><rect x="124" y="248" width="31" height="31" transform="rotate(0,139.5,263.5)"/><rect x="155" y="62" width="31" height="31" transform="rotate(0,170.5,77.5)"/><rect x="155" y="248" width="31" height="31" transform="rotate(0,170.5,263.5)"/><rect x="186" y="62" width="31" height="31" transform="rotate(0,201.5,77.5)"/><rect x="186" y="248" width="31" height="31" transform="rotate(0,201.5,263.5)"/><rect x="217" y="62" width="31" height="31" transform="rotate(0,232.5,77.5)"/><rect x="217" y="248" width="31" height="31" transform="rotate(0,232.5,263.5)"/><path d="M 248 62v 31h 31v -15.5a 15.5 15.5, 0, 0, 0, -15.5 -15.5" transform="rotate(0,263.5,77.5)"/><rect x="248" y="93" width="31" height="31" transform="rotate(0,263.5,108.5)"/><rect x="248" y="124" width="31" height="31" transform="rotate(0,263.5,139.5)"/><rect x="248" y="155" width="31" height="31" transform="rotate(0,263.5,170.5)"/><rect x="248" y="186" width="31" height="31" transform="rotate(0,263.5,201.5)"/><rect x="248" y="217" width="31" height="31" transform="rotate(0,263.5,232.5)"/><path d="M 248 248v 31h 31v -15.5a 15.5 15.5, 0, 0, 0, -15.5 -15.5" transform="rotate(90,263.5,263.5)"/></clipPath><clipPath id="clip-path-corners-dot-color-0-0"><path d="M 124 124v 31h 31v -15.5a 15.5 15.5, 0, 0, 0, -15.5 -15.5" transform="rotate(-90,139.5,139.5)"/><rect x="124" y="155" width="31" height="31" transform="rotate(0,139.5,170.5)"/><path d="M 124 186v 31h 31v -15.5a 15.5 15.5, 0, 0, 0, -15.5 -15.5" transform="rotate(180,139.5,201.5)"/><rect x="155" y="124" width="31" height="31" transform="rotate(0,170.5,139.5)"/><rect x="155" y="155" width="31" height="31" transform="rotate(0,170.5,170.5)"/><rect x="155" y="186" width="31" height="31" transform="rotate(0,170.5,201.5)"/><path d="M 186 124v 31h 31v -15.5a 15.5 15.5, 0, 0, 0, -15.5 -15.5" transform="rotate(0,201.5,139.5)"/><rect x="186" y="155" width="31" height="31" transform="rotate(0,201.5,170.5)"/><path d="M 186 186v 31h 31v -15.5a 15.5 15.5, 0, 0, 0, -15.5 -15.5" transform="rotate(90,201.5,201.5)"/></clipPath><clipPath id="clip-path-corners-square-color-1-0"><path d="M 744 62v 31h 31v -15.5a 15.5 15.5, 0, 0, 0, -15.5 -15.5" transform="rotate(-90,759.5,77.5)"/><rect x="744" y="93" width="31" height="31" transform="rotate(0,759.5,108.5)"/><rect x="744" y="124" width="31" height="31" transform="rotate(0,759.5,139.5)"/><rect x="744" y="155" width="31" height="31" transform="rotate(0,759.5,170.5)"/><rect x="744" y="186" width="31" height="31" transform="rotate(0,759.5,201.5)"/><rect x="744" y="217" width="31" height="31" transform="rotate(0,759.5,232.5)"/><path d="M 744 248v 31h 31v -15.5a 15.5 15.5, 0, 0, 0, -15.5 -15.5" transform="rotate(180,759.5,263.5)"/><rect x="775" y="62" width="31" height="31" transform="rotate(0,790.5,77.5)"/><rect x="775" y="248" width="31" height="31" transform="rotate(0,790.5,263.5)"/><rect x="806" y="62" width="31" height="31" transform="rotate(0,821.5,77.5)"/><rect x="806" y="248" width="31" height="31" transform="rotate(0,821.5,263.5)"/><rect x="837" y="62" width="31" height="31" transform="rotate(0,852.5,77.5)"/><rect x="837" y="248" width="31" height="31" transform="rotate(0,852.5,263.5)"/><rect x="868" y="62" width="31" height="31" transform="rotate(0,883.5,77.5)"/><rect x="868" y="248" width="31" height="31" transform="rotate(0,883.5,263.5)"/><rect x="899" y="62" width="31" height="31" transform="rotate(0,914.5,77.5)"/><rect x="899" y="248" width="31" height="31" transform="rotate(0,914.5,263.5)"/><path d="M 930 62v 31h 31v -15.5a 15.5 15.5, 0, 0, 0, -15.5 -15.5" transform="rotate(0,945.5,77.5)"/><rect x="930" y="93" width="31" height="31" transform="rotate(0,945.5,108.5)"/><rect x="930" y="124" width="31" height="31" transform="rotate(0,945.5,139.5)"/><rect x="930" y="155" width="31" height="31" transform="rotate(0,945.5,170.5)"/><rect x="930" y="186" width="31" height="31" transform="rotate(0,945.5,201.5)"/><rect x="930" y="217" width="31" height="31" transform="rotate(0,945.5,232.5)"/><path d="M 930 248v 31h 31v -15.5a 15.5 15.5, 0, 0, 0, -15.5 -15.5" transform="rotate(90,945.5,263.5)"/></clipPath><clipPath id="clip-path-corners-dot-color-1-0"><path d="M 806 124v 31h 31v -15.5a 15.5 15.5, 0, 0, 0, -15.5 -15.5" transform="rotate(-90,821.5,139.5)"/><rect x="806" y="155" width="31" height="31" transform="rotate(0,821.5,170.5)"/><path d="M 806 186v 31h 31v -15.5a 15.5 15.5, 0, 0, 0, -15.5 -15.5" transform="rotate(180,821.5,201.5)"/><rect x="837" y="124" width="31" height="31" transform="rotate(0,852.5,139.5)"/><rect x="837" y="155" width="31" height="31" transform="rotate(0,852.5,170.5)"/><rect x="837" y="186" width="31" height="31" transform="rotate(0,852.5,201.5)"/><path d="M 868 124v 31h 31v -15.5a 15.5 15.5, 0, 0, 0, -15.5 -15.5" transform="rotate(0,883.5,139.5)"/><rect x="868" y="155" width="31" height="31" transform="rotate(0,883.5,170.5)"/><path d="M 868 186v 31h 31v -15.5a 15.5 15.5, 0, 0, 0, -15.5 -15.5" transform="rotate(90,883.5,201.5)"/></clipPath><clipPath id="clip-path-corners-square-color-0-1"><path d="M 62 744v 31h 31v -15.5a 15.5 15.5, 0, 0, 0, -15.5 -15.5" transform="rotate(-90,77.5,759.5)"/><rect x="62" y="775" width="31" height="31" transform="rotate(0,77.5,790.5)"/><rect x="62" y="806" width="31" height="31" transform="rotate(0,77.5,821.5)"/><rect x="62" y="837" width="31" height="31" transform="rotate(0,77.5,852.5)"/><rect x="62" y="868" width="31" height="31" transform="rotate(0,77.5,883.5)"/><rect x="62" y="899" width="31" height="31" transform="rotate(0,77.5,914.5)"/><path d="M 62 930v 31h 31v -15.5a 15.5 15.5, 0, 0, 0, -15.5 -15.5" transform="rotate(180,77.5,945.5)"/><rect x="93" y="744" width="31" height="31" transform="rotate(0,108.5,759.5)"/><rect x="93" y="930" width="31" height="31" transform="rotate(0,108.5,945.5)"/><rect x="124" y="744" width="31" height="31" transform="rotate(0,139.5,759.5)"/><rect x="124" y="930" width="31" height="31" transform="rotate(0,139.5,945.5)"/><rect x="155" y="744" width="31" height="31" transform="rotate(0,170.5,759.5)"/><rect x="155" y="930" width="31" height="31" transform="rotate(0,170.5,945.5)"/><rect x="186" y="744" width="31" height="31" transform="rotate(0,201.5,759.5)"/><rect x="186" y="930" width="31" height="31" transform="rotate(0,201.5,945.5)"/><rect x="217" y="744" width="31" height="31" transform="rotate(0,232.5,759.5)"/><rect x="217" y="930" width="31" height="31" transform="rotate(0,232.5,945.5)"/><path d="M 248 744v 31h 31v -15.5a 15.5 15.5, 0, 0, 0, -15.5 -15.5" transform="rotate(0,263.5,759.5)"/><rect x="248" y="775" width="31" height="31" transform="rotate(0,263.5,790.5)"/><rect x="248" y="806" width="31" height="31" transform="rotate(0,263.5,821.5)"/><rect x="248" y="837" width="31" height="31" transform="rotate(0,263.5,852.5)"/><rect x="248" y="868" width="31" height="31" transform="rotate(0,263.5,883.5)"/><rect x="248" y="899" width="31" height="31" transform="rotate(0,263.5,914.5)"/><path d="M 248 930v 31h 31v -15.5a 15.5 15.5, 0, 0, 0, -15.5 -15.5" transform="rotate(90,263.5,945.5)"/></clipPath><clipPath id="clip-path-corners-dot-color-0-1"><path d="M 124 806v 31h 31v -15.5a 15.5 15.5, 0, 0, 0, -15.5 -15.5" transform="rotate(-90,139.5,821.5)"/><rect x="124" y="837" width="31" height="31" transform="rotate(0,139.5,852.5)"/><path d="M 124 868v 31h 31v -15.5a 15.5 15.5, 0, 0, 0, -15.5 -15.5" transform="rotate(180,139.5,883.5)"/><rect x="155" y="806" width="31" height="31" transform="rotate(0,170.5,821.5)"/><rect x="155" y="837" width="31" height="31" transform="rotate(0,170.5,852.5)"/><rect x="155" y="868" width="31" height="31" transform="rotate(0,170.5,883.5)"/><path d="M 186 806v 31h 31v -15.5a 15.5 15.5, 0, 0, 0, -15.5 -15.5" transform="rotate(0,201.5,821.5)"/><rect x="186" y="837" width="31" height="31" transform="rotate(0,201.5,852.5)"/><path d="M 186 868v 31h 31v -15.5a 15.5 15.5, 0, 0, 0, -15.5 -15.5" transform="rotate(90,201.5,883.5)"/></clipPath></defs><rect x="0" y="0" height="1024" width="1024" clip-path="url('#clip-path-background-color')" fill="#ffffff"/><rect x="62" y="62" height="899" width="899" clip-path="url('#clip-path-dot-color')" fill="#000000"/><rect x="62" y="62" height="217" width="217" clip-path="url('#clip-path-corners-square-color-0-0')" fill="#000000"/><rect x="124" y="124" height="93" width="93" clip-path="url('#clip-path-corners-dot-color-0-0')" fill="#000000"/><rect x="744" y="62" height="217" width="217" clip-path="url('#clip-path-corners-square-color-1-0')" fill="#000000"/><rect x="806" y="124" height="93" width="93" clip-path="url('#clip-path-corners-dot-color-1-0')" fill="#000000"/><rect x="62" y="744" height="217" width="217" clip-path="url('#clip-path-corners-square-color-0-1')" fill="#000000"/><rect x="124" y="806" height="93" width="93" clip-path="url('#clip-path-corners-dot-color-0-1')" fill="#000000"/></svg>